<?xml version="1.0" encoding="UTF-8" standalone="no"?>
<!DOCTYPE svg PUBLIC "-//W3C//DTD SVG 1.1//EN"
 "http://www.w3.org/Graphics/SVG/1.1/DTD/svg11.dtd">
<!-- Generated by graphviz version 2.43.0 (0)
 -->
<!-- Title: G Pages: 1 -->
<svg width="1001pt" height="364pt"
 viewBox="0.00 0.00 1001.00 364.00" xmlns="http://www.w3.org/2000/svg" xmlns:xlink="http://www.w3.org/1999/xlink">
<g id="graph0" class="graph" transform="scale(1 1) rotate(0) translate(4 360)">
<title>G</title>
<polygon fill="white" stroke="transparent" points="-4,4 -4,-360 997,-360 997,4 -4,4"/>
<g id="clust1" class="cluster">
<title>cluster_G</title>
<path fill="#808080" fill-opacity="0.094118" stroke="black" d="M20,-8C20,-8 973,-8 973,-8 979,-8 985,-14 985,-20 985,-20 985,-336 985,-336 985,-342 979,-348 973,-348 973,-348 20,-348 20,-348 14,-348 8,-342 8,-336 8,-336 8,-20 8,-20 8,-14 14,-8 20,-8"/>
</g>
<!-- orbital -->
<g id="node1" class="node">
<title>orbital</title>
<ellipse fill="#ffffff" fill-opacity="0.698039" stroke="black" cx="914" cy="-322" rx="33.6" ry="18"/>
<text text-anchor="middle" x="914" y="-318.3" font-family="Times,serif" font-size="14.00" fill="#000000">orbital</text>
</g>
<!-- orbital__bodies -->
<g id="node2" class="node">
<title>orbital__bodies</title>
<ellipse fill="#ffffff" fill-opacity="0.698039" stroke="black" cx="794" cy="-322" rx="59.29" ry="18"/>
<text text-anchor="middle" x="794" y="-318.3" font-family="Times,serif" font-size="14.00" fill="#000000">orbital.bodies</text>
</g>
<!-- orbital__mission -->
<g id="node3" class="node">
<title>orbital__mission</title>
<ellipse fill="#ffffff" fill-opacity="0.698039" stroke="black" cx="392" cy="-250" rx="63.89" ry="18"/>
<text text-anchor="middle" x="392" y="-246.3" font-family="Times,serif" font-size="14.00" fill="#000000">orbital.mission</text>
</g>
<!-- orbital__bodies__CelestialBody -->
<g id="node5" class="node">
<title>orbital__bodies__CelestialBody</title>
<ellipse fill="#eaff99" fill-opacity="0.698039" stroke="black" cx="351" cy="-178" rx="60.39" ry="18"/>
<text text-anchor="middle" x="351" y="-174.3" font-family="Times,serif" font-size="14.00" fill="#000000">CelestialBody</text>
</g>
<!-- orbital__mission&#45;&gt;orbital__bodies__CelestialBody -->
<g id="edge2" class="edge">
<title>orbital__mission&#45;&gt;orbital__bodies__CelestialBody</title>
<path fill="none" stroke="#000000" d="M382.08,-232.05C377.24,-223.8 371.33,-213.7 365.96,-204.54"/>
<polygon fill="#000000" stroke="#000000" points="368.91,-202.65 360.83,-195.79 362.87,-206.19 368.91,-202.65"/>
</g>
<!-- orbital__orbits__Orbit -->
<g id="node17" class="node">
<title>orbital__orbits__Orbit</title>
<ellipse fill="#99c1ff" fill-opacity="0.698039" stroke="black" cx="243" cy="-178" rx="29.5" ry="18"/>
<text text-anchor="middle" x="243" y="-174.3" font-family="Times,serif" font-size="14.00" fill="#000000">Orbit</text>
</g>
<!-- orbital__mission&#45;&gt;orbital__orbits__Orbit -->
<g id="edge3" class="edge">
<title>orbital__mission&#45;&gt;orbital__orbits__Orbit</title>
<path fill="none" stroke="#000000" d="M360.4,-234.15C335.25,-222.34 300.21,-205.88 274.97,-194.02"/>
<polygon fill="#000000" stroke="#000000" points="276.35,-190.8 265.81,-189.72 273.38,-197.14 276.35,-190.8"/>
</g>
<!-- orbital__orbits -->
<g id="node4" class="node">
<title>orbital__orbits</title>
<ellipse fill="#ffffff" fill-opacity="0.698039" stroke="black" cx="643" cy="-322" rx="55.79" ry="18"/>
<text text-anchor="middle" x="643" y="-318.3" font-family="Times,serif" font-size="14.00" fill="#000000">orbital.orbits</text>
</g>
<!-- orbital__bodies__CelestialBody____init__ -->
<g id="node6" class="node">
<title>orbital__bodies__CelestialBody____init__</title>
<ellipse fill="#e0ff65" fill-opacity="0.698039" stroke="black" cx="56" cy="-178" rx="40.09" ry="18"/>
<text text-anchor="middle" x="56" y="-174.3" font-family="Times,serif" font-size="14.00" fill="#000000">__init__</text>
</g>
<!-- orbital__bodies__CelestialBody__escape_velocity -->
<g id="node7" class="node">
<title>orbital__bodies__CelestialBody__escape_velocity</title>
<ellipse fill="#e0ff65" fill-opacity="0.698039" stroke="black" cx="587" cy="-178" rx="66.89" ry="18"/>
<text text-anchor="middle" x="587" y="-174.3" font-family="Times,serif" font-size="14.00" fill="#000000">escape_velocity</text>
</g>
<!-- orbital__bodies__CelestialBody__gravity -->
<g id="node8" class="node">
<title>orbital__bodies__CelestialBody__gravity</title>
<ellipse fill="#e0ff65" fill-opacity="0.698039" stroke="black" cx="587" cy="-106" rx="36" ry="18"/>
<text text-anchor="middle" x="587" y="-102.3" font-family="Times,serif" font-size="14.00" fill="#000000">gravity</text>
</g>
<!-- orbital__bodies__CelestialBody__escape_velocity&#45;&gt;orbital__bodies__CelestialBody__gravity -->
<g id="edge1" class="edge">
<title>orbital__bodies__CelestialBody__escape_velocity&#45;&gt;orbital__bodies__CelestialBody__gravity</title>
<path fill="none" stroke="#000000" d="M587,-159.7C587,-151.98 587,-142.71 587,-134.11"/>
<polygon fill="#000000" stroke="#000000" points="590.5,-134.1 587,-124.1 583.5,-134.1 590.5,-134.1"/>
</g>
<!-- orbital__bodies__CelestialBody__hill_radius -->
<g id="node9" class="node">
<title>orbital__bodies__CelestialBody__hill_radius</title>
<ellipse fill="#e0ff65" fill-opacity="0.698039" stroke="black" cx="811" cy="-250" rx="48.19" ry="18"/>
<text text-anchor="middle" x="811" y="-246.3" font-family="Times,serif" font-size="14.00" fill="#000000">hill_radius</text>
</g>
<!-- orbital__mission__TransferOrbit -->
<g id="node10" class="node">
<title>orbital__mission__TransferOrbit</title>
<ellipse fill="#99ffc1" fill-opacity="0.698039" stroke="black" cx="251" cy="-250" rx="59.29" ry="18"/>
<text text-anchor="middle" x="251" y="-246.3" font-family="Times,serif" font-size="14.00" fill="#000000">TransferOrbit</text>
</g>
<!-- orbital__mission__delta_v -->
<g id="node11" class="node">
<title>orbital__mission__delta_v</title>
<ellipse fill="#99ffc1" fill-opacity="0.698039" stroke="black" cx="466" cy="-178" rx="36.29" ry="18"/>
<text text-anchor="middle" x="466" y="-174.3" font-family="Times,serif" font-size="14.00" fill="#000000">delta_v</text>
</g>
<!-- orbital__mission__plan_mission -->
<g id="node12" class="node">
<title>orbital__mission__plan_mission</title>
<ellipse fill="#99ffc1" fill-opacity="0.698039" stroke="black" cx="475" cy="-322" rx="57.69" ry="18"/>
<text text-anchor="middle" x="475" y="-318.3" font-family="Times,serif" font-size="14.00" fill="#000000">plan_mission</text>
</g>
<!-- orbital__mission__plan_mission&#45;&gt;orbital__bodies__CelestialBody -->
<g id="edge15" class="edge">
<title>orbital__mission__plan_mission&#45;&gt;orbital__bodies__CelestialBody</title>
<path fill="none" stroke="#000000" d="M477.71,-303.85C479.8,-284.53 480.17,-253.08 465,-232 451.35,-213.03 429.17,-200.65 407.98,-192.68"/>
<polygon fill="#000000" stroke="#000000" points="408.95,-189.31 398.35,-189.31 406.64,-195.91 408.95,-189.31"/>
</g>
<!-- orbital__mission__plan_mission&#45;&gt;orbital__bodies__CelestialBody____init__ -->
<g id="edge16" class="edge">
<title>orbital__mission__plan_mission&#45;&gt;orbital__bodies__CelestialBody____init__</title>
<path fill="none" stroke="#000000" d="M417.12,-320.47C321.03,-318.42 134.25,-309.1 85,-268 66.91,-252.91 60.01,-226.37 57.43,-206.19"/>
<polygon fill="#000000" stroke="#000000" points="60.89,-205.63 56.41,-196.03 53.92,-206.33 60.89,-205.63"/>
</g>
<!-- orbital__mission__plan_mission&#45;&gt;orbital__bodies__CelestialBody__hill_radius -->
<g id="edge17" class="edge">
<title>orbital__mission__plan_mission&#45;&gt;orbital__bodies__CelestialBody__hill_radius</title>
<path fill="none" stroke="#000000" d="M523.9,-312.33C591.8,-300.19 711.13,-278.44 754,-268 757.79,-267.08 761.69,-266.06 765.61,-264.99"/>
<polygon fill="#000000" stroke="#000000" points="766.6,-268.35 775.27,-262.26 764.7,-261.61 766.6,-268.35"/>
</g>
<!-- orbital__mission__plan_mission&#45;&gt;orbital__mission__TransferOrbit -->
<g id="edge18" class="edge">
<title>orbital__mission__plan_mission&#45;&gt;orbital__mission__TransferOrbit</title>
<path fill="none" stroke="#000000" d="M435.73,-308.73C398.05,-296.95 341.04,-279.14 300.32,-266.41"/>
<polygon fill="#000000" stroke="#000000" points="301.19,-263.02 290.61,-263.38 299.11,-269.7 301.19,-263.02"/>
</g>
<!-- orbital__mission__TransferOrbit____init__ -->
<g id="node13" class="node">
<title>orbital__mission__TransferOrbit____init__</title>
<ellipse fill="#65ffa3" fill-opacity="0.698039" stroke="black" cx="134" cy="-250" rx="40.09" ry="18"/>
<text text-anchor="middle" x="134" y="-246.3" font-family="Times,serif" font-size="14.00" fill="#000000">__init__</text>
</g>
<!-- orbital__mission__plan_mission&#45;&gt;orbital__mission__TransferOrbit____init__ -->
<g id="edge19" class="edge">
<title>orbital__mission__plan_mission&#45;&gt;orbital__mission__TransferOrbit____init__</title>
<path fill="none" stroke="#000000" d="M423.04,-314.05C364.24,-305.6 265.85,-289.75 183,-268 179.86,-267.18 176.64,-266.25 173.42,-265.26"/>
<polygon fill="#000000" stroke="#000000" points="174.43,-261.91 163.83,-262.17 172.28,-268.57 174.43,-261.91"/>
</g>
<!-- orbital__mission__TransferOrbit__compute -->
<g id="node14" class="node">
<title>orbital__mission__TransferOrbit__compute</title>
<ellipse fill="#65ffa3" fill-opacity="0.698039" stroke="black" cx="703" cy="-250" rx="41.69" ry="18"/>
<text text-anchor="middle" x="703" y="-246.3" font-family="Times,serif" font-size="14.00" fill="#000000">compute</text>
</g>
<!-- orbital__mission__plan_mission&#45;&gt;orbital__mission__TransferOrbit__compute -->
<g id="edge20" class="edge">
<title>orbital__mission__plan_mission&#45;&gt;orbital__mission__TransferOrbit__compute</title>
<path fill="none" stroke="#000000" d="M514.71,-308.81C555.46,-296.3 618.64,-276.9 660.41,-264.08"/>
<polygon fill="#000000" stroke="#000000" points="661.49,-267.41 670.02,-261.12 659.44,-260.71 661.49,-267.41"/>
</g>
<!-- orbital__mission__TransferOrbit__delta_v_budget -->
<g id="node15" class="node">
<title>orbital__mission__TransferOrbit__delta_v_budget</title>
<ellipse fill="#65ffa3" fill-opacity="0.698039" stroke="black" cx="559" cy="-250" rx="64.99" ry="18"/>
<text text-anchor="middle" x="559" y="-246.3" font-family="Times,serif" font-size="14.00" fill="#000000">delta_v_budget</text>
</g>
<!-- orbital__mission__plan_mission&#45;&gt;orbital__mission__TransferOrbit__delta_v_budget -->
<g id="edge21" class="edge">
<title>orbital__mission__plan_mission&#45;&gt;orbital__mission__TransferOrbit__delta_v_budget</title>
<path fill="none" stroke="#000000" d="M494.48,-304.76C505.43,-295.64 519.27,-284.1 531.33,-274.06"/>
<polygon fill="#000000" stroke="#000000" points="533.89,-276.48 539.33,-267.39 529.41,-271.1 533.89,-276.48"/>
</g>
<!-- orbital__mission__TransferOrbit____init__&#45;&gt;orbital__bodies__CelestialBody -->
<g id="edge4" class="edge">
<title>orbital__mission__TransferOrbit____init__&#45;&gt;orbital__bodies__CelestialBody</title>
<path fill="none" stroke="#000000" d="M164.8,-238.17C170.82,-236.09 177.1,-233.95 183,-232 222.51,-218.92 267.48,-204.77 300.94,-194.38"/>
<polygon fill="#000000" stroke="#000000" points="301.98,-197.73 310.5,-191.42 299.91,-191.04 301.98,-197.73"/>
</g>
<!-- orbital__mission__TransferOrbit____init__&#45;&gt;orbital__bodies__CelestialBody____init__ -->
<g id="edge5" class="edge">
<title>orbital__mission__TransferOrbit____init__&#45;&gt;orbital__bodies__CelestialBody____init__</title>
<path fill="none" stroke="#000000" d="M116.69,-233.46C106.19,-224.04 92.61,-211.85 80.96,-201.4"/>
<polygon fill="#000000" stroke="#000000" points="83.04,-198.57 73.26,-194.49 78.37,-203.78 83.04,-198.57"/>
</g>
<!-- orbital__mission__TransferOrbit____init__&#45;&gt;orbital__orbits__Orbit -->
<g id="edge6" class="edge">
<title>orbital__mission__TransferOrbit____init__&#45;&gt;orbital__orbits__Orbit</title>
<path fill="none" stroke="#000000" d="M156.06,-234.83C173.06,-223.92 196.68,-208.75 215.01,-196.97"/>
<polygon fill="#000000" stroke="#000000" points="217.01,-199.85 223.53,-191.5 213.23,-193.96 217.01,-199.85"/>
</g>
<!-- orbital__orbits__Orbit____init__ -->
<g id="node20" class="node">
<title>orbital__orbits__Orbit____init__</title>
<ellipse fill="#65a3ff" fill-opacity="0.698039" stroke="black" cx="155" cy="-178" rx="40.09" ry="18"/>
<text text-anchor="middle" x="155" y="-174.3" font-family="Times,serif" font-size="14.00" fill="#000000">__init__</text>
</g>
<!-- orbital__mission__TransferOrbit____init__&#45;&gt;orbital__orbits__Orbit____init__ -->
<g id="edge7" class="edge">
<title>orbital__mission__TransferOrbit____init__&#45;&gt;orbital__orbits__Orbit____init__</title>
<path fill="none" stroke="#000000" d="M139.08,-232.05C141.42,-224.26 144.25,-214.82 146.88,-206.08"/>
<polygon fill="#000000" stroke="#000000" points="150.3,-206.86 149.82,-196.28 143.59,-204.85 150.3,-206.86"/>
</g>
<!-- orbital__mission__TransferOrbit__refine -->
<g id="node16" class="node">
<title>orbital__mission__TransferOrbit__refine</title>
<ellipse fill="#65ffa3" fill-opacity="0.698039" stroke="black" cx="703" cy="-178" rx="31.4" ry="18"/>
<text text-anchor="middle" x="703" y="-174.3" font-family="Times,serif" font-size="14.00" fill="#000000">refine</text>
</g>
<!-- orbital__mission__TransferOrbit__compute&#45;&gt;orbital__mission__TransferOrbit__refine -->
<g id="edge8" class="edge">
<title>orbital__mission__TransferOrbit__compute&#45;&gt;orbital__mission__TransferOrbit__refine</title>
<path fill="none" stroke="#000000" d="M703,-231.7C703,-223.98 703,-214.71 703,-206.11"/>
<polygon fill="#000000" stroke="#000000" points="706.5,-206.1 703,-196.1 699.5,-206.1 706.5,-206.1"/>
</g>
<!-- orbital__orbits__Orbit__period -->
<g id="node21" class="node">
<title>orbital__orbits__Orbit__period</title>
<ellipse fill="#65a3ff" fill-opacity="0.698039" stroke="black" cx="674" cy="-106" rx="33.29" ry="18"/>
<text text-anchor="middle" x="674" y="-102.3" font-family="Times,serif" font-size="14.00" fill="#000000">period</text>
</g>
<!-- orbital__mission__TransferOrbit__compute&#45;&gt;orbital__orbits__Orbit__period -->
<g id="edge9" class="edge">
<title>orbital__mission__TransferOrbit__compute&#45;&gt;orbital__orbits__Orbit__period</title>
<path fill="none" stroke="#000000" d="M726.12,-234.91C739,-225.64 753.85,-212.23 761,-196 767.45,-181.36 768.84,-173.95 761,-160 754.9,-149.14 729.17,-134.18 707.26,-122.93"/>
<polygon fill="#000000" stroke="#000000" points="708.68,-119.72 698.17,-118.35 705.53,-125.97 708.68,-119.72"/>
</g>
<!-- orbital__orbits__Orbit__propagate -->
<g id="node23" class="node">
<title>orbital__orbits__Orbit__propagate</title>
<ellipse fill="#65a3ff" fill-opacity="0.698039" stroke="black" cx="835" cy="-178" rx="45.49" ry="18"/>
<text text-anchor="middle" x="835" y="-174.3" font-family="Times,serif" font-size="14.00" fill="#000000">propagate</text>
</g>
<!-- orbital__mission__TransferOrbit__compute&#45;&gt;orbital__orbits__Orbit__propagate -->
<g id="edge10" class="edge">
<title>orbital__mission__TransferOrbit__compute&#45;&gt;orbital__orbits__Orbit__propagate</title>
<path fill="none" stroke="#000000" d="M728.45,-235.5C748.73,-224.75 777.35,-209.57 799.82,-197.65"/>
<polygon fill="#000000" stroke="#000000" points="801.53,-200.71 808.72,-192.93 798.25,-194.53 801.53,-200.71"/>
</g>
<!-- orbital__mission__TransferOrbit__delta_v_budget&#45;&gt;orbital__bodies__CelestialBody__escape_velocity -->
<g id="edge11" class="edge">
<title>orbital__mission__TransferOrbit__delta_v_budget&#45;&gt;orbital__bodies__CelestialBody__escape_velocity</title>
<path fill="none" stroke="#000000" d="M565.78,-232.05C568.93,-224.18 572.75,-214.62 576.28,-205.79"/>
<polygon fill="#000000" stroke="#000000" points="579.63,-206.86 580.09,-196.28 573.13,-204.26 579.63,-206.86"/>
</g>
<!-- orbital__mission__TransferOrbit__delta_v_budget&#45;&gt;orbital__mission__delta_v -->
<g id="edge12" class="edge">
<title>orbital__mission__TransferOrbit__delta_v_budget&#45;&gt;orbital__mission__delta_v</title>
<path fill="none" stroke="#000000" d="M537.43,-232.76C524.37,-222.93 507.57,-210.29 493.55,-199.74"/>
<polygon fill="#000000" stroke="#000000" points="495.34,-196.7 485.24,-193.48 491.13,-202.29 495.34,-196.7"/>
</g>
<!-- orbital__mission__TransferOrbit__refine&#45;&gt;orbital__bodies__CelestialBody__gravity -->
<g id="edge13" class="edge">
<title>orbital__mission__TransferOrbit__refine&#45;&gt;orbital__bodies__CelestialBody__gravity</title>
<path fill="none" stroke="#000000" d="M682.26,-164.49C664.32,-153.66 638.14,-137.86 617.76,-125.56"/>
<polygon fill="#000000" stroke="#000000" points="619.51,-122.53 609.14,-120.36 615.89,-128.52 619.51,-122.53"/>
</g>
<!-- orbital__mission__TransferOrbit__refine&#45;&gt;orbital__mission__TransferOrbit__refine -->
<g id="edge14" class="edge">
<title>orbital__mission__TransferOrbit__refine&#45;&gt;orbital__mission__TransferOrbit__refine</title>
<path fill="none" stroke="#000000" d="M725.52,-190.6C739.22,-193.52 752.2,-189.32 752.2,-178 752.2,-169.6 745.05,-165.12 735.76,-164.56"/>
<polygon fill="#000000" stroke="#000000" points="735.2,-161.09 725.52,-165.4 735.77,-168.07 735.2,-161.09"/>
</g>
<!-- orbital__orbits__converge_anomaly -->
<g id="node18" class="node">
<title>orbital__orbits__converge_anomaly</title>
<ellipse fill="#99c1ff" fill-opacity="0.698039" stroke="black" cx="803" cy="-106" rx="77.99" ry="18"/>
<text text-anchor="middle" x="803" y="-102.3" font-family="Times,serif" font-size="14.00" fill="#000000">converge_anomaly</text>
</g>
<!-- orbital__orbits__refine_anomaly -->
<g id="node19" class="node">
<title>orbital__orbits__refine_anomaly</title>
<ellipse fill="#99c1ff" fill-opacity="0.698039" stroke="black" cx="803" cy="-34" rx="66.09" ry="18"/>
<text text-anchor="middle" x="803" y="-30.3" font-family="Times,serif" font-size="14.00" fill="#000000">refine_anomaly</text>
</g>
<!-- orbital__orbits__converge_anomaly&#45;&gt;orbital__orbits__refine_anomaly -->
<g id="edge25" class="edge">
<title>orbital__orbits__converge_anomaly&#45;&gt;orbital__orbits__refine_anomaly</title>
<path fill="none" stroke="#000000" d="M803,-77.67C803,-72.69 803,-67.49 803,-62.51"/>
<polygon fill="#000000" stroke="#000000" points="799.5,-77.7 803,-87.7 806.5,-77.7 799.5,-77.7"/>
<polygon fill="#000000" stroke="#000000" points="806.5,-62.1 803,-52.1 799.5,-62.1 806.5,-62.1"/>
</g>
<!-- orbital__orbits__Orbit__position -->
<g id="node22" class="node">
<title>orbital__orbits__Orbit__position</title>
<ellipse fill="#65a3ff" fill-opacity="0.698039" stroke="black" cx="938" cy="-106" rx="38.99" ry="18"/>
<text text-anchor="middle" x="938" y="-102.3" font-family="Times,serif" font-size="14.00" fill="#000000">position</text>
</g>
<!-- orbital__orbits__Orbit__propagate&#45;&gt;orbital__orbits__converge_anomaly -->
<g id="edge24" class="edge">
<title>orbital__orbits__Orbit__propagate&#45;&gt;orbital__orbits__converge_anomaly</title>
<path fill="none" stroke="#000000" d="M827.25,-160.05C823.61,-152.09 819.19,-142.41 815.12,-133.51"/>
<polygon fill="#000000" stroke="#000000" points="818.24,-131.91 810.9,-124.28 811.87,-134.83 818.24,-131.91"/>
</g>
<!-- orbital__orbits__Orbit__propagate&#45;&gt;orbital__orbits__Orbit__period -->
<g id="edge22" class="edge">
<title>orbital__orbits__Orbit__propagate&#45;&gt;orbital__orbits__Orbit__period</title>
<path fill="none" stroke="#000000" d="M805.47,-164.16C778.07,-152.25 737.27,-134.51 708.41,-121.96"/>
<polygon fill="#000000" stroke="#000000" points="709.68,-118.7 699.11,-117.92 706.89,-125.12 709.68,-118.7"/>
</g>
<!-- orbital__orbits__Orbit__propagate&#45;&gt;orbital__orbits__Orbit__position -->
<g id="edge23" class="edge">
<title>orbital__orbits__Orbit__propagate&#45;&gt;orbital__orbits__Orbit__position</title>
<path fill="none" stroke="#000000" d="M856.84,-162.15C871.79,-152 891.8,-138.4 908.2,-127.25"/>
<polygon fill="#000000" stroke="#000000" points="910.59,-129.86 916.89,-121.35 906.65,-124.07 910.59,-129.86"/>
</g>
</g>
</svg>
