<?xml version="1.0" encoding="UTF-8" standalone="no"?>
<!DOCTYPE svg PUBLIC "-//W3C//DTD SVG 1.1//EN"
 "http://www.w3.org/Graphics/SVG/1.1/DTD/svg11.dtd">
<!-- Generated by graphviz version 2.43.0 (0)
 -->
<!-- Title: G Pages: 1 -->
<svg width="1588pt" height="440pt"
 viewBox="0.00 0.00 1588.00 440.00" xmlns="http://www.w3.org/2000/svg" xmlns:xlink="http://www.w3.org/1999/xlink">
<g id="graph0" class="graph" transform="scale(1 1) rotate(0) translate(4 436)">
<title>G</title>
<polygon fill="white" stroke="transparent" points="-4,4 -4,-436 1584,-436 1584,4 -4,4"/>
<g id="clust1" class="cluster">
<title>cluster_G</title>
<path fill="#808080" fill-opacity="0.094118" stroke="black" d="M20,-8C20,-8 1560,-8 1560,-8 1566,-8 1572,-14 1572,-20 1572,-20 1572,-412 1572,-412 1572,-418 1566,-424 1560,-424 1560,-424 20,-424 20,-424 14,-424 8,-418 8,-412 8,-412 8,-20 8,-20 8,-14 14,-8 20,-8"/>
</g>
<g id="clust2" class="cluster">
<title>cluster_orbital__bodies</title>
<path fill="#808080" fill-opacity="0.094118" stroke="black" d="M1068,-80C1068,-80 1552,-80 1552,-80 1558,-80 1564,-86 1564,-92 1564,-92 1564,-254 1564,-254 1564,-260 1558,-266 1552,-266 1552,-266 1068,-266 1068,-266 1062,-266 1056,-260 1056,-254 1056,-254 1056,-92 1056,-92 1056,-86 1062,-80 1068,-80"/>
<text text-anchor="middle" x="1310" y="-250.8" font-family="Times,serif" font-size="14.00">orbital.bodies</text>
</g>
<g id="clust3" class="cluster">
<title>cluster_orbital__bodies__CelestialBody</title>
<path fill="#808080" fill-opacity="0.094118" stroke="black" d="M1206,-88C1206,-88 1544,-88 1544,-88 1550,-88 1556,-94 1556,-100 1556,-100 1556,-223 1556,-223 1556,-229 1550,-235 1544,-235 1544,-235 1206,-235 1206,-235 1200,-235 1194,-229 1194,-223 1194,-223 1194,-100 1194,-100 1194,-94 1200,-88 1206,-88"/>
<text text-anchor="middle" x="1375" y="-219.8" font-family="Times,serif" font-size="14.00">orbital.bodies.CelestialBody</text>
</g>
<g id="clust4" class="cluster">
<title>cluster_orbital__mission</title>
<path fill="#808080" fill-opacity="0.094118" stroke="black" d="M490,-152C490,-152 1036,-152 1036,-152 1042,-152 1048,-158 1048,-164 1048,-164 1048,-404 1048,-404 1048,-410 1042,-416 1036,-416 1036,-416 490,-416 490,-416 484,-416 478,-410 478,-404 478,-404 478,-164 478,-164 478,-158 484,-152 490,-152"/>
<text text-anchor="middle" x="763" y="-400.8" font-family="Times,serif" font-size="14.00">orbital.mission</text>
</g>
<g id="clust5" class="cluster">
<title>cluster_orbital__mission__TransferOrbit</title>
<path fill="#808080" fill-opacity="0.094118" stroke="black" d="M626,-160C626,-160 948,-160 948,-160 954,-160 960,-166 960,-172 960,-172 960,-329 960,-329 960,-335 954,-341 948,-341 948,-341 626,-341 626,-341 620,-341 614,-335 614,-329 614,-329 614,-172 614,-172 614,-166 620,-160 626,-160"/>
<text text-anchor="middle" x="787" y="-325.8" font-family="Times,serif" font-size="14.00">orbital.mission.TransferOrbit</text>
</g>
<g id="clust6" class="cluster">
<title>cluster_orbital__orbits</title>
<path fill="#808080" fill-opacity="0.094118" stroke="black" d="M28,-16C28,-16 458,-16 458,-16 464,-16 470,-22 470,-28 470,-28 470,-254 470,-254 470,-260 464,-266 458,-266 458,-266 28,-266 28,-266 22,-266 16,-260 16,-254 16,-254 16,-28 16,-28 16,-22 22,-16 28,-16"/>
<text text-anchor="middle" x="243" y="-250.8" font-family="Times,serif" font-size="14.00">orbital.orbits</text>
</g>
<g id="clust7" class="cluster">
<title>cluster_orbital__orbits__Orbit</title>
<path fill="#808080" fill-opacity="0.094118" stroke="black" d="M200,-88C200,-88 381,-88 381,-88 387,-88 393,-94 393,-100 393,-100 393,-223 393,-223 393,-229 387,-235 381,-235 381,-235 200,-235 200,-235 194,-235 188,-229 188,-223 188,-223 188,-100 188,-100 188,-94 194,-88 200,-88"/>
<text text-anchor="middle" x="290.5" y="-219.8" font-family="Times,serif" font-size="14.00">orbital.orbits.Orbit</text>
</g>
<!-- orbital__bodies__CelestialBody -->
<g id="node1" class="node">
<title>orbital__bodies__CelestialBody</title>
<ellipse fill="#ff9999" fill-opacity="0.698039" stroke="black" cx="1124" cy="-186" rx="60.39" ry="18"/>
<text text-anchor="middle" x="1124" y="-182.3" font-family="Times,serif" font-size="14.00" fill="#000000">CelestialBody</text>
</g>
<!-- orbital__bodies__CelestialBody____init__ -->
<g id="node2" class="node">
<title>orbital__bodies__CelestialBody____init__</title>
<ellipse fill="#ff6565" fill-opacity="0.698039" stroke="black" cx="1394" cy="-186" rx="40.09" ry="18"/>
<text text-anchor="middle" x="1394" y="-182.3" font-family="Times,serif" font-size="14.00" fill="#000000">__init__</text>
</g>
<!-- orbital__bodies__CelestialBody__escape_velocity -->
<g id="node3" class="node">
<title>orbital__bodies__CelestialBody__escape_velocity</title>
<ellipse fill="#ff6565" fill-opacity="0.698039" stroke="black" cx="1269" cy="-186" rx="66.89" ry="18"/>
<text text-anchor="middle" x="1269" y="-182.3" font-family="Times,serif" font-size="14.00" fill="#000000">escape_velocity</text>
</g>
<!-- orbital__bodies__CelestialBody__gravity -->
<g id="node4" class="node">
<title>orbital__bodies__CelestialBody__gravity</title>
<ellipse fill="#ff6565" fill-opacity="0.698039" stroke="black" cx="1269" cy="-114" rx="36" ry="18"/>
<text text-anchor="middle" x="1269" y="-110.3" font-family="Times,serif" font-size="14.00" fill="#000000">gravity</text>
</g>
<!-- orbital__bodies__CelestialBody__escape_velocity&#45;&gt;orbital__bodies__CelestialBody__gravity -->
<g id="edge6" class="edge">
<title>orbital__bodies__CelestialBody__escape_velocity&#45;&gt;orbital__bodies__CelestialBody__gravity</title>
<path fill="none" stroke="#000000" d="M1269,-167.7C1269,-159.98 1269,-150.71 1269,-142.11"/>
<polygon fill="#000000" stroke="#000000" points="1272.5,-142.1 1269,-132.1 1265.5,-142.1 1272.5,-142.1"/>
</g>
<!-- orbital__bodies__CelestialBody__hill_radius -->
<g id="node5" class="node">
<title>orbital__bodies__CelestialBody__hill_radius</title>
<ellipse fill="#ff6565" fill-opacity="0.698039" stroke="black" cx="1500" cy="-186" rx="48.19" ry="18"/>
<text text-anchor="middle" x="1500" y="-182.3" font-family="Times,serif" font-size="14.00" fill="#000000">hill_radius</text>
</g>
<!-- orbital__mission__TransferOrbit -->
<g id="node6" class="node">
<title>orbital__mission__TransferOrbit</title>
<ellipse fill="#ccff99" fill-opacity="0.698039" stroke="black" cx="545" cy="-292" rx="59.29" ry="18"/>
<text text-anchor="middle" x="545" y="-288.3" font-family="Times,serif" font-size="14.00" fill="#000000">TransferOrbit</text>
</g>
<!-- orbital__mission__delta_v -->
<g id="node7" class="node">
<title>orbital__mission__delta_v</title>
<ellipse fill="#ccff99" fill-opacity="0.698039" stroke="black" cx="1004" cy="-186" rx="36.29" ry="18"/>
<text text-anchor="middle" x="1004" y="-182.3" font-family="Times,serif" font-size="14.00" fill="#000000">delta_v</text>
</g>
<!-- orbital__mission__plan_mission -->
<g id="node8" class="node">
<title>orbital__mission__plan_mission</title>
<ellipse fill="#ccff99" fill-opacity="0.698039" stroke="black" cx="764" cy="-367" rx="57.69" ry="18"/>
<text text-anchor="middle" x="764" y="-363.3" font-family="Times,serif" font-size="14.00" fill="#000000">plan_mission</text>
</g>
<!-- orbital__mission__plan_mission&#45;&gt;orbital__bodies__CelestialBody -->
<g id="edge21" class="edge">
<title>orbital__mission__plan_mission&#45;&gt;orbital__bodies__CelestialBody</title>
<path fill="none" stroke="#000000" d="M820.28,-362.57C870.22,-358.88 939.02,-352.01 964,-341 1027.42,-313.05 1080.67,-248.42 1106.76,-212.4"/>
<polygon fill="#000000" stroke="#000000" points="1109.86,-214.08 1112.79,-203.9 1104.15,-210.03 1109.86,-214.08"/>
</g>
<!-- orbital__mission__plan_mission&#45;&gt;orbital__bodies__CelestialBody____init__ -->
<g id="edge24" class="edge">
<title>orbital__mission__plan_mission&#45;&gt;orbital__bodies__CelestialBody____init__</title>
<path fill="none" stroke="#000000" d="M820.36,-362.46C949.28,-353.41 1260.99,-325.8 1345,-266 1363.14,-253.09 1375.95,-231.16 1383.92,-213.68"/>
<polygon fill="#000000" stroke="#000000" points="1387.34,-214.57 1388.05,-204 1380.91,-211.82 1387.34,-214.57"/>
</g>
<!-- orbital__mission__plan_mission&#45;&gt;orbital__bodies__CelestialBody__hill_radius -->
<g id="edge20" class="edge">
<title>orbital__mission__plan_mission&#45;&gt;orbital__bodies__CelestialBody__hill_radius</title>
<path fill="none" stroke="#000000" d="M822.09,-366.88C905.03,-367.18 1061.86,-364.16 1193,-341 1307.24,-320.82 1348.49,-333.27 1443,-266 1462.07,-252.43 1477.17,-230.45 1487.03,-213.11"/>
<polygon fill="#000000" stroke="#000000" points="1490.26,-214.5 1491.96,-204.04 1484.11,-211.16 1490.26,-214.5"/>
</g>
<!-- orbital__mission__plan_mission&#45;&gt;orbital__mission__TransferOrbit -->
<g id="edge19" class="edge">
<title>orbital__mission__plan_mission&#45;&gt;orbital__mission__TransferOrbit</title>
<path fill="none" stroke="#000000" d="M707.35,-363.24C677.46,-360.2 640.71,-353.93 610,-341 595.64,-334.96 581.51,-325.12 570.11,-315.93"/>
<polygon fill="#000000" stroke="#000000" points="572.24,-313.14 562.33,-309.41 567.74,-318.51 572.24,-313.14"/>
</g>
<!-- orbital__mission__TransferOrbit____init__ -->
<g id="node9" class="node">
<title>orbital__mission__TransferOrbit____init__</title>
<ellipse fill="#b2ff65" fill-opacity="0.698039" stroke="black" cx="764" cy="-292" rx="40.09" ry="18"/>
<text text-anchor="middle" x="764" y="-288.3" font-family="Times,serif" font-size="14.00" fill="#000000">__init__</text>
</g>
<!-- orbital__mission__plan_mission&#45;&gt;orbital__mission__TransferOrbit____init__ -->
<g id="edge22" class="edge">
<title>orbital__mission__plan_mission&#45;&gt;orbital__mission__TransferOrbit____init__</title>
<path fill="none" stroke="#000000" d="M764,-348.7C764,-340.25 764,-329.87 764,-320.37"/>
<polygon fill="#000000" stroke="#000000" points="767.5,-320.18 764,-310.18 760.5,-320.18 767.5,-320.18"/>
</g>
<!-- orbital__mission__TransferOrbit__compute -->
<g id="node10" class="node">
<title>orbital__mission__TransferOrbit__compute</title>
<ellipse fill="#b2ff65" fill-opacity="0.698039" stroke="black" cx="664" cy="-292" rx="41.69" ry="18"/>
<text text-anchor="middle" x="664" y="-288.3" font-family="Times,serif" font-size="14.00" fill="#000000">compute</text>
</g>
<!-- orbital__mission__plan_mission&#45;&gt;orbital__mission__TransferOrbit__compute -->
<g id="edge23" class="edge">
<title>orbital__mission__plan_mission&#45;&gt;orbital__mission__TransferOrbit__compute</title>
<path fill="none" stroke="#000000" d="M732.9,-351.82C726.78,-348.56 720.54,-344.9 715,-341 704.7,-333.75 694.38,-324.5 685.74,-316.06"/>
<polygon fill="#000000" stroke="#000000" points="688.17,-313.54 678.63,-308.92 683.21,-318.48 688.17,-313.54"/>
</g>
<!-- orbital__mission__TransferOrbit__delta_v_budget -->
<g id="node11" class="node">
<title>orbital__mission__TransferOrbit__delta_v_budget</title>
<ellipse fill="#b2ff65" fill-opacity="0.698039" stroke="black" cx="887" cy="-292" rx="64.99" ry="18"/>
<text text-anchor="middle" x="887" y="-288.3" font-family="Times,serif" font-size="14.00" fill="#000000">delta_v_budget</text>
</g>
<!-- orbital__mission__plan_mission&#45;&gt;orbital__mission__TransferOrbit__delta_v_budget -->
<g id="edge18" class="edge">
<title>orbital__mission__plan_mission&#45;&gt;orbital__mission__TransferOrbit__delta_v_budget</title>
<path fill="none" stroke="#000000" d="M793.8,-351.42C800.2,-348.11 806.88,-344.53 813,-341 827.12,-332.85 842.29,-323.18 855.19,-314.66"/>
<polygon fill="#000000" stroke="#000000" points="857.34,-317.44 863.73,-308.98 853.46,-311.61 857.34,-317.44"/>
</g>
<!-- orbital__mission__TransferOrbit____init__&#45;&gt;orbital__bodies__CelestialBody -->
<g id="edge8" class="edge">
<title>orbital__mission__TransferOrbit____init__&#45;&gt;orbital__bodies__CelestialBody</title>
<path fill="none" stroke="#000000" d="M792.89,-279.37C799.41,-277.2 806.36,-275.23 813,-274 839.12,-269.15 1027.88,-277.14 1052,-266 1076.32,-254.77 1096.11,-231.08 1108.74,-212.56"/>
<polygon fill="#000000" stroke="#000000" points="1111.82,-214.24 1114.36,-203.95 1105.96,-210.41 1111.82,-214.24"/>
</g>
<!-- orbital__mission__TransferOrbit____init__&#45;&gt;orbital__bodies__CelestialBody____init__ -->
<g id="edge10" class="edge">
<title>orbital__mission__TransferOrbit____init__&#45;&gt;orbital__bodies__CelestialBody____init__</title>
<path fill="none" stroke="#000000" d="M792.87,-279.28C799.39,-277.12 806.35,-275.17 813,-274 842.11,-268.87 1319.28,-280.57 1345,-266 1364.79,-254.79 1377.64,-231.99 1385.19,-213.75"/>
<polygon fill="#000000" stroke="#000000" points="1388.55,-214.78 1388.85,-204.19 1382.01,-212.28 1388.55,-214.78"/>
</g>
<!-- orbital__orbits__Orbit -->
<g id="node13" class="node">
<title>orbital__orbits__Orbit</title>
<ellipse fill="#99feff" fill-opacity="0.698039" stroke="black" cx="433" cy="-186" rx="29.5" ry="18"/>
<text text-anchor="middle" x="433" y="-182.3" font-family="Times,serif" font-size="14.00" fill="#000000">Orbit</text>
</g>
<!-- orbital__mission__TransferOrbit____init__&#45;&gt;orbital__orbits__Orbit -->
<g id="edge7" class="edge">
<title>orbital__mission__TransferOrbit____init__&#45;&gt;orbital__orbits__Orbit</title>
<path fill="none" stroke="#000000" d="M734.81,-279.5C728.37,-277.35 721.52,-275.36 715,-274 669.18,-264.47 655.37,-277.48 610,-266 555.43,-252.19 496.61,-222.7 462.38,-203.91"/>
<polygon fill="#000000" stroke="#000000" points="463.85,-200.72 453.41,-198.92 460.44,-206.84 463.85,-200.72"/>
</g>
<!-- orbital__orbits__Orbit____init__ -->
<g id="node16" class="node">
<title>orbital__orbits__Orbit____init__</title>
<ellipse fill="#65feff" fill-opacity="0.698039" stroke="black" cx="345" cy="-186" rx="40.09" ry="18"/>
<text text-anchor="middle" x="345" y="-182.3" font-family="Times,serif" font-size="14.00" fill="#000000">__init__</text>
</g>
<!-- orbital__mission__TransferOrbit____init__&#45;&gt;orbital__orbits__Orbit____init__ -->
<g id="edge9" class="edge">
<title>orbital__mission__TransferOrbit____init__&#45;&gt;orbital__orbits__Orbit____init__</title>
<path fill="none" stroke="#000000" d="M735.12,-279.33C728.6,-277.16 721.65,-275.2 715,-274 697.17,-270.77 404.51,-275.37 389,-266 370.07,-254.56 358.65,-231.78 352.2,-213.61"/>
<polygon fill="#000000" stroke="#000000" points="355.53,-212.52 349.12,-204.09 348.87,-214.68 355.53,-212.52"/>
</g>
<!-- orbital__mission__TransferOrbit__refine -->
<g id="node12" class="node">
<title>orbital__mission__TransferOrbit__refine</title>
<ellipse fill="#b2ff65" fill-opacity="0.698039" stroke="black" cx="664" cy="-186" rx="31.4" ry="18"/>
<text text-anchor="middle" x="664" y="-182.3" font-family="Times,serif" font-size="14.00" fill="#000000">refine</text>
</g>
<!-- orbital__mission__TransferOrbit__compute&#45;&gt;orbital__mission__TransferOrbit__refine -->
<g id="edge13" class="edge">
<title>orbital__mission__TransferOrbit__compute&#45;&gt;orbital__mission__TransferOrbit__refine</title>
<path fill="none" stroke="#000000" d="M664,-273.83C664,-257.64 664,-233.13 664,-214.27"/>
<polygon fill="#000000" stroke="#000000" points="667.5,-214.2 664,-204.2 660.5,-214.2 667.5,-214.2"/>
</g>
<!-- orbital__orbits__Orbit__period -->
<g id="node17" class="node">
<title>orbital__orbits__Orbit__period</title>
<ellipse fill="#65feff" fill-opacity="0.698039" stroke="black" cx="331" cy="-114" rx="33.29" ry="18"/>
<text text-anchor="middle" x="331" y="-110.3" font-family="Times,serif" font-size="14.00" fill="#000000">period</text>
</g>
<!-- orbital__mission__TransferOrbit__compute&#45;&gt;orbital__orbits__Orbit__period -->
<g id="edge12" class="edge">
<title>orbital__mission__TransferOrbit__compute&#45;&gt;orbital__orbits__Orbit__period</title>
<path fill="none" stroke="#000000" d="M640.5,-276.81C635.02,-273.37 629.26,-269.63 624,-266 555.09,-218.43 549.34,-188.54 474,-152 441.7,-136.34 401.96,-126.74 372.58,-121.26"/>
<polygon fill="#000000" stroke="#000000" points="373.11,-117.8 362.65,-119.49 371.88,-124.69 373.11,-117.8"/>
</g>
<!-- orbital__orbits__Orbit__propagate -->
<g id="node19" class="node">
<title>orbital__orbits__Orbit__propagate</title>
<ellipse fill="#65feff" fill-opacity="0.698039" stroke="black" cx="241" cy="-186" rx="45.49" ry="18"/>
<text text-anchor="middle" x="241" y="-182.3" font-family="Times,serif" font-size="14.00" fill="#000000">propagate</text>
</g>
<!-- orbital__mission__TransferOrbit__compute&#45;&gt;orbital__orbits__Orbit__propagate -->
<g id="edge11" class="edge">
<title>orbital__mission__TransferOrbit__compute&#45;&gt;orbital__orbits__Orbit__propagate</title>
<path fill="none" stroke="#000000" d="M635.21,-278.72C629.6,-276.8 623.69,-275.09 618,-274 600.43,-270.63 311.76,-274.48 296,-266 275.04,-254.72 260.38,-231.54 251.5,-213.2"/>
<polygon fill="#000000" stroke="#000000" points="254.59,-211.53 247.26,-203.87 248.21,-214.42 254.59,-211.53"/>
</g>
<!-- orbital__mission__TransferOrbit__delta_v_budget&#45;&gt;orbital__bodies__CelestialBody__escape_velocity -->
<g id="edge16" class="edge">
<title>orbital__mission__TransferOrbit__delta_v_budget&#45;&gt;orbital__bodies__CelestialBody__escape_velocity</title>
<path fill="none" stroke="#000000" d="M951.99,-291.36C1030.21,-290.84 1156.25,-286.66 1198,-266 1221.72,-254.26 1241.16,-230.86 1253.66,-212.56"/>
<polygon fill="#000000" stroke="#000000" points="1256.68,-214.34 1259.23,-204.05 1250.82,-210.5 1256.68,-214.34"/>
</g>
<!-- orbital__mission__TransferOrbit__delta_v_budget&#45;&gt;orbital__mission__delta_v -->
<g id="edge17" class="edge">
<title>orbital__mission__TransferOrbit__delta_v_budget&#45;&gt;orbital__mission__delta_v</title>
<path fill="none" stroke="#000000" d="M938.04,-280.72C947.38,-277.17 956.53,-272.4 964,-266 980.01,-252.29 990.34,-230.61 996.49,-213.43"/>
<polygon fill="#000000" stroke="#000000" points="999.82,-214.52 999.64,-203.92 993.17,-212.32 999.82,-214.52"/>
</g>
<!-- orbital__mission__TransferOrbit__refine&#45;&gt;orbital__bodies__CelestialBody__gravity -->
<g id="edge14" class="edge">
<title>orbital__mission__TransferOrbit__refine&#45;&gt;orbital__bodies__CelestialBody__gravity</title>
<path fill="none" stroke="#000000" d="M676.3,-169.31C682.37,-162.76 690.27,-155.8 699,-152 746.48,-131.34 1095.95,-119.76 1223,-116.2"/>
<polygon fill="#000000" stroke="#000000" points="1223.27,-119.69 1233.17,-115.92 1223.08,-112.7 1223.27,-119.69"/>
</g>
<!-- orbital__mission__TransferOrbit__refine&#45;&gt;orbital__mission__TransferOrbit__refine -->
<g id="edge15" class="edge">
<title>orbital__mission__TransferOrbit__refine&#45;&gt;orbital__mission__TransferOrbit__refine</title>
<path fill="none" stroke="#000000" d="M686.52,-198.6C700.22,-201.52 713.2,-197.32 713.2,-186 713.2,-177.6 706.05,-173.12 696.76,-172.56"/>
<polygon fill="#000000" stroke="#000000" points="696.2,-169.09 686.52,-173.4 696.77,-176.07 696.2,-169.09"/>
</g>
<!-- orbital__orbits__converge_anomaly -->
<g id="node14" class="node">
<title>orbital__orbits__converge_anomaly</title>
<ellipse fill="#99feff" fill-opacity="0.698039" stroke="black" cx="102" cy="-114" rx="77.99" ry="18"/>
<text text-anchor="middle" x="102" y="-110.3" font-family="Times,serif" font-size="14.00" fill="#000000">converge_anomaly</text>
</g>
<!-- orbital__orbits__refine_anomaly -->
<g id="node15" class="node">
<title>orbital__orbits__refine_anomaly</title>
<ellipse fill="#99feff" fill-opacity="0.698039" stroke="black" cx="102" cy="-42" rx="66.09" ry="18"/>
<text text-anchor="middle" x="102" y="-38.3" font-family="Times,serif" font-size="14.00" fill="#000000">refine_anomaly</text>
</g>
<!-- orbital__orbits__converge_anomaly&#45;&gt;orbital__orbits__refine_anomaly -->
<g id="edge4" class="edge">
<title>orbital__orbits__converge_anomaly&#45;&gt;orbital__orbits__refine_anomaly</title>
<path fill="none" stroke="#000000" d="M96.08,-95.7C95.29,-87.98 95.06,-78.71 95.4,-70.11"/>
<polygon fill="#000000" stroke="#000000" points="98.9,-70.32 96.1,-60.1 91.92,-69.84 98.9,-70.32"/>
</g>
<!-- orbital__orbits__refine_anomaly&#45;&gt;orbital__orbits__converge_anomaly -->
<g id="edge5" class="edge">
<title>orbital__orbits__refine_anomaly&#45;&gt;orbital__orbits__converge_anomaly</title>
<path fill="none" stroke="#000000" d="M107.9,-60.1C108.7,-67.79 108.94,-77.05 108.6,-85.67"/>
<polygon fill="#000000" stroke="#000000" points="105.11,-85.48 107.92,-95.7 112.09,-85.96 105.11,-85.48"/>
</g>
<!-- orbital__orbits__Orbit__position -->
<g id="node18" class="node">
<title>orbital__orbits__Orbit__position</title>
<ellipse fill="#65feff" fill-opacity="0.698039" stroke="black" cx="241" cy="-114" rx="38.99" ry="18"/>
<text text-anchor="middle" x="241" y="-110.3" font-family="Times,serif" font-size="14.00" fill="#000000">position</text>
</g>
<!-- orbital__orbits__Orbit__propagate&#45;&gt;orbital__orbits__converge_anomaly -->
<g id="edge1" class="edge">
<title>orbital__orbits__Orbit__propagate&#45;&gt;orbital__orbits__converge_anomaly</title>
<path fill="none" stroke="#000000" d="M213.87,-171.34C193.45,-161.06 165.15,-146.8 142.12,-135.21"/>
<polygon fill="#000000" stroke="#000000" points="143.44,-131.95 132.94,-130.58 140.3,-138.2 143.44,-131.95"/>
</g>
<!-- orbital__orbits__Orbit__propagate&#45;&gt;orbital__orbits__Orbit__period -->
<g id="edge3" class="edge">
<title>orbital__orbits__Orbit__propagate&#45;&gt;orbital__orbits__Orbit__period</title>
<path fill="none" stroke="#000000" d="M260.97,-169.46C273.75,-159.52 290.48,-146.51 304.38,-135.7"/>
<polygon fill="#000000" stroke="#000000" points="306.87,-138.2 312.61,-129.3 302.57,-132.68 306.87,-138.2"/>
</g>
<!-- orbital__orbits__Orbit__propagate&#45;&gt;orbital__orbits__Orbit__position -->
<g id="edge2" class="edge">
<title>orbital__orbits__Orbit__propagate&#45;&gt;orbital__orbits__Orbit__position</title>
<path fill="none" stroke="#000000" d="M241,-167.7C241,-159.98 241,-150.71 241,-142.11"/>
<polygon fill="#000000" stroke="#000000" points="244.5,-142.1 241,-132.1 237.5,-142.1 244.5,-142.1"/>
</g>
</g>
</svg>

