<?xml version="1.0" encoding="UTF-8" standalone="no"?>
<!DOCTYPE svg PUBLIC "-//W3C//DTD SVG 1.1//EN"
 "http://www.w3.org/Graphics/SVG/1.1/DTD/svg11.dtd">
<!-- Generated by graphviz version 2.43.0 (0)
 -->
<!-- Title: G Pages: 1 -->
<svg width="1315pt" height="544pt"
 viewBox="0.00 0.00 1315.00 544.00" xmlns="http://www.w3.org/2000/svg" xmlns:xlink="http://www.w3.org/1999/xlink">
<g id="graph0" class="graph" transform="scale(1 1) rotate(0) translate(4 540)">
<title>G</title>
<polygon fill="white" stroke="transparent" points="-4,4 -4,-540 1311,-540 1311,4 -4,4"/>
<g id="clust1" class="cluster">
<title>cluster_G</title>
<path fill="#808080" fill-opacity="0.094118" stroke="black" d="M20,-8C20,-8 1287,-8 1287,-8 1293,-8 1299,-14 1299,-20 1299,-20 1299,-516 1299,-516 1299,-522 1293,-528 1287,-528 1287,-528 20,-528 20,-528 14,-528 8,-522 8,-516 8,-516 8,-20 8,-20 8,-14 14,-8 20,-8"/>
</g>
<g id="clust2" class="cluster">
<title>cluster_pyan__modvis</title>
<path fill="#808080" fill-opacity="0.094118" stroke="black" d="M40,-16C40,-16 1277,-16 1277,-16 1283,-16 1289,-22 1289,-28 1289,-28 1289,-464 1289,-464 1289,-470 1283,-476 1277,-476 1277,-476 40,-476 40,-476 34,-476 28,-470 28,-464 28,-464 28,-28 28,-28 28,-22 34,-16 40,-16"/>
<text text-anchor="middle" x="658.5" y="-460.8" font-family="Times,serif" font-size="14.00">pyan.modvis</text>
</g>
<g id="clust3" class="cluster">
<title>cluster_pyan__modvis__ImportVisitor</title>
<path fill="#808080" fill-opacity="0.094118" stroke="black" d="M340,-88C340,-88 1075,-88 1075,-88 1081,-88 1087,-94 1087,-100 1087,-100 1087,-314 1087,-314 1087,-320 1081,-326 1075,-326 1075,-326 340,-326 340,-326 334,-326 328,-320 328,-314 328,-314 328,-100 328,-100 328,-94 334,-88 340,-88"/>
<text text-anchor="middle" x="707.5" y="-310.8" font-family="Times,serif" font-size="14.00">pyan.modvis.ImportVisitor</text>
</g>
<g id="clust4" class="cluster">
<title>cluster_pyan__modvis__ImportVisitor__detect_cycles</title>
<path fill="#808080" fill-opacity="0.094118" stroke="black" d="M603,-160C603,-160 821,-160 821,-160 827,-160 833,-166 833,-172 833,-172 833,-223 833,-223 833,-229 827,-235 821,-235 821,-235 603,-235 603,-235 597,-235 591,-229 591,-223 591,-223 591,-172 591,-172 591,-166 597,-160 603,-160"/>
<text text-anchor="middle" x="712" y="-219.8" font-family="Times,serif" font-size="14.00">pyan.modvis.ImportVisitor.detect_cycles</text>
</g>
<g id="clust5" class="cluster">
<title>cluster_pyan__modvis__ImportVisitor__prepare_graphX</title>
<path fill="#808080" fill-opacity="0.094118" stroke="black" d="M348,-160C348,-160 571,-160 571,-160 577,-160 583,-166 583,-172 583,-172 583,-223 583,-223 583,-229 577,-235 571,-235 571,-235 348,-235 348,-235 342,-235 336,-229 336,-223 336,-223 336,-172 336,-172 336,-166 342,-160 348,-160"/>
<text text-anchor="middle" x="459.5" y="-219.8" font-family="Times,serif" font-size="14.00">pyan.modvis.ImportVisitor.prepare_graph</text>
</g>
<g id="clust6" class="cluster">
<title>cluster_pyan__modvis__main</title>
<path fill="#808080" fill-opacity="0.094118" stroke="black" d="M1107,-243C1107,-243 1269,-243 1269,-243 1275,-243 1281,-249 1281,-255 1281,-255 1281,-389 1281,-389 1281,-395 1275,-401 1269,-401 1269,-401 1107,-401 1107,-401 1101,-401 1095,-395 1095,-389 1095,-389 1095,-255 1095,-255 1095,-249 1101,-243 1107,-243"/>
<text text-anchor="middle" x="1188" y="-385.8" font-family="Times,serif" font-size="14.00">pyan.modvis.main</text>
</g>
<g id="clust7" class="cluster">
<title>cluster_pyan__modvis__main__stats</title>
<path fill="#808080" fill-opacity="0.094118" stroke="black" d="M1115,-251C1115,-251 1261,-251 1261,-251 1267,-251 1273,-257 1273,-263 1273,-263 1273,-314 1273,-314 1273,-320 1267,-326 1261,-326 1261,-326 1115,-326 1115,-326 1109,-326 1103,-320 1103,-314 1103,-314 1103,-263 1103,-263 1103,-257 1109,-251 1115,-251"/>
<text text-anchor="middle" x="1188" y="-310.8" font-family="Times,serif" font-size="14.00">pyan.modvis.main.stats</text>
</g>
<!-- pyan__modvis -->
<g id="node1" class="node">
<title>pyan__modvis</title>
<ellipse fill="#ffffff" fill-opacity="0.698039" stroke="black" cx="735" cy="-502" rx="56.59" ry="18"/>
<text text-anchor="middle" x="735" y="-498.3" font-family="Times,serif" font-size="14.00" fill="#000000">pyan.modvis</text>
</g>
<!-- pyan__modvis__ImportVisitor -->
<g id="node2" class="node">
<title>pyan__modvis__ImportVisitor</title>
<ellipse fill="#ff9999" fill-opacity="0.698039" stroke="black" cx="811" cy="-352" rx="59.59" ry="18"/>
<text text-anchor="middle" x="811" y="-348.3" font-family="Times,serif" font-size="14.00" fill="#000000">ImportVisitor</text>
</g>
<!-- pyan__modvis&#45;&gt;pyan__modvis__ImportVisitor -->
<g id="edge4" class="edge">
<title>pyan__modvis&#45;&gt;pyan__modvis__ImportVisitor</title>
<path fill="none" stroke="#838b8b" stroke-dasharray="5,2" d="M703.61,-486.83C699.77,-483.81 696.37,-480.22 694,-476 679.42,-450.04 674.58,-431.57 694,-409 701.77,-399.97 736.01,-405.6 747,-401 761.23,-395.04 775.15,-385.22 786.36,-376.01"/>
<polygon fill="#838b8b" stroke="#838b8b" points="788.68,-378.63 794.01,-369.47 784.13,-373.31 788.68,-378.63"/>
</g>
<!-- pyan__modvis___infer_root -->
<g id="node3" class="node">
<title>pyan__modvis___infer_root</title>
<ellipse fill="#ff9999" fill-opacity="0.698039" stroke="black" cx="270" cy="-114" rx="50.09" ry="18"/>
<text text-anchor="middle" x="270" y="-110.3" font-family="Times,serif" font-size="14.00" fill="#000000">_infer_root</text>
</g>
<!-- pyan__modvis&#45;&gt;pyan__modvis___infer_root -->
<g id="edge5" class="edge">
<title>pyan__modvis&#45;&gt;pyan__modvis___infer_root</title>
<path fill="none" stroke="#838b8b" stroke-dasharray="5,2" d="M678.36,-501.34C508.82,-500.86 17,-487.83 17,-353 17,-353 17,-353 17,-276 17,-224.25 -7.77,-198.32 27,-160 50.96,-133.59 146.28,-122.5 210.17,-117.98"/>
<polygon fill="#838b8b" stroke="#838b8b" points="210.79,-121.44 220.53,-117.28 210.32,-114.46 210.79,-121.44"/>
</g>
<!-- pyan__modvis__create_modulegraphX -->
<g id="node4" class="node">
<title>pyan__modvis__create_modulegraphX</title>
<ellipse fill="#ff9999" fill-opacity="0.698039" stroke="black" cx="786" cy="-427" rx="83.39" ry="18"/>
<text text-anchor="middle" x="786" y="-423.3" font-family="Times,serif" font-size="14.00" fill="#000000">create_modulegraph</text>
</g>
<!-- pyan__modvis&#45;&gt;pyan__modvis__create_modulegraphX -->
<g id="edge7" class="edge">
<title>pyan__modvis&#45;&gt;pyan__modvis__create_modulegraphX</title>
<path fill="none" stroke="#838b8b" stroke-dasharray="5,2" d="M746.83,-484.07C753.27,-474.86 761.35,-463.28 768.5,-453.04"/>
<polygon fill="#838b8b" stroke="#838b8b" points="771.38,-455.04 774.24,-444.84 765.64,-451.03 771.38,-455.04"/>
</g>
<!-- pyan__modvis__filename_to_module_name -->
<g id="node5" class="node">
<title>pyan__modvis__filename_to_module_name</title>
<ellipse fill="#ff9999" fill-opacity="0.698039" stroke="black" cx="201" cy="-42" rx="108.58" ry="18"/>
<text text-anchor="middle" x="201" y="-38.3" font-family="Times,serif" font-size="14.00" fill="#000000">filename_to_module_name</text>
</g>
<!-- pyan__modvis&#45;&gt;pyan__modvis__filename_to_module_name -->
<g id="edge3" class="edge">
<title>pyan__modvis&#45;&gt;pyan__modvis__filename_to_module_name</title>
<path fill="none" stroke="#838b8b" stroke-dasharray="5,2" d="M789.23,-496.47C833.69,-492.36 898.16,-485.48 954,-476 1102.71,-450.74 1184.87,-513.82 1285,-401 1299.24,-384.96 1290,-374.45 1290,-353 1290,-353 1290,-353 1290,-185 1290,-86.61 1186.28,-112.54 1091,-88 948.66,-51.35 527.3,-44.31 319.54,-43.12"/>
<polygon fill="#838b8b" stroke="#838b8b" points="319.53,-39.62 309.51,-43.07 319.49,-46.62 319.53,-39.62"/>
</g>
<!-- pyan__modvis__main -->
<g id="node6" class="node">
<title>pyan__modvis__main</title>
<ellipse fill="#ff9999" fill-opacity="0.698039" stroke="black" cx="916" cy="-427" rx="28.7" ry="18"/>
<text text-anchor="middle" x="916" y="-423.3" font-family="Times,serif" font-size="14.00" fill="#000000">main</text>
</g>
<!-- pyan__modvis&#45;&gt;pyan__modvis__main -->
<g id="edge2" class="edge">
<title>pyan__modvis&#45;&gt;pyan__modvis__main</title>
<path fill="none" stroke="#838b8b" stroke-dasharray="5,2" d="M791.35,-499.56C816.51,-496.55 845.61,-489.93 869,-476 879.21,-469.92 887.75,-460 894.88,-450.75"/>
<polygon fill="#838b8b" stroke="#838b8b" points="897.81,-452.67 901.04,-442.57 892.22,-448.45 897.81,-452.67"/>
</g>
<!-- pyan__modvis&#45;&gt;pyan__modvis__main -->
<g id="edge20" class="edge">
<title>pyan__modvis&#45;&gt;pyan__modvis__main</title>
<path fill="none" stroke="#000000" d="M791.49,-501.02C821.85,-499.04 858.63,-492.89 887,-476 895.99,-470.65 903.68,-462.32 909.23,-454.09"/>
<polygon fill="#000000" stroke="#000000" points="912.32,-455.74 914.38,-445.35 906.29,-452.19 912.32,-455.74"/>
</g>
<!-- pyan__modvis__resolve -->
<g id="node7" class="node">
<title>pyan__modvis__resolve</title>
<ellipse fill="#ff9999" fill-opacity="0.698039" stroke="black" cx="72" cy="-186" rx="36.29" ry="18"/>
<text text-anchor="middle" x="72" y="-182.3" font-family="Times,serif" font-size="14.00" fill="#000000">resolve</text>
</g>
<!-- pyan__modvis&#45;&gt;pyan__modvis__resolve -->
<g id="edge1" class="edge">
<title>pyan__modvis&#45;&gt;pyan__modvis__resolve</title>
<path fill="none" stroke="#838b8b" stroke-dasharray="5,2" d="M679.07,-498.84C610.29,-495.68 497.78,-488.74 458,-476 294.67,-423.68 145.56,-270.02 92.5,-210.72"/>
<polygon fill="#838b8b" stroke="#838b8b" points="94.91,-208.17 85.66,-203 89.67,-212.81 94.91,-208.17"/>
</g>
<!-- pyan__modvis__split_module_name -->
<g id="node8" class="node">
<title>pyan__modvis__split_module_name</title>
<ellipse fill="#ff9999" fill-opacity="0.698039" stroke="black" cx="227" cy="-186" rx="81.49" ry="18"/>
<text text-anchor="middle" x="227" y="-182.3" font-family="Times,serif" font-size="14.00" fill="#000000">split_module_name</text>
</g>
<!-- pyan__modvis&#45;&gt;pyan__modvis__split_module_name -->
<g id="edge6" class="edge">
<title>pyan__modvis&#45;&gt;pyan__modvis__split_module_name</title>
<path fill="none" stroke="#838b8b" stroke-dasharray="5,2" d="M690.57,-490.78C610.28,-470.56 438.69,-419.13 324,-326 285.45,-294.7 255.58,-244.27 239.69,-213.53"/>
<polygon fill="#838b8b" stroke="#838b8b" points="242.66,-211.64 235.03,-204.29 236.41,-214.8 242.66,-211.64"/>
</g>
<!-- pyan__modvis__ImportVisitor____init__ -->
<g id="node9" class="node">
<title>pyan__modvis__ImportVisitor____init__</title>
<ellipse fill="#ff6565" fill-opacity="0.698039" stroke="black" cx="1039" cy="-186" rx="40.09" ry="18"/>
<text text-anchor="middle" x="1039" y="-182.3" font-family="Times,serif" font-size="14.00" fill="#000000">__init__</text>
</g>
<!-- pyan__modvis__ImportVisitor&#45;&gt;pyan__modvis__ImportVisitor____init__ -->
<g id="edge12" class="edge">
<title>pyan__modvis__ImportVisitor&#45;&gt;pyan__modvis__ImportVisitor____init__</title>
<path fill="none" stroke="#838b8b" stroke-dasharray="5,2" d="M866.54,-345.27C882.89,-341.61 900.1,-335.67 914,-326 950.53,-300.59 935.37,-270.94 970,-243 977.45,-236.99 981.98,-240.23 990,-235 1000.23,-228.33 1010.14,-219.29 1018.33,-210.86"/>
<polygon fill="#838b8b" stroke="#838b8b" points="1021.05,-213.07 1025.33,-203.38 1015.94,-208.29 1021.05,-213.07"/>
</g>
<!-- pyan__modvis__ImportVisitor__add_dependency -->
<g id="node10" class="node">
<title>pyan__modvis__ImportVisitor__add_dependency</title>
<ellipse fill="#ff6565" fill-opacity="0.698039" stroke="black" cx="911" cy="-186" rx="69.59" ry="18"/>
<text text-anchor="middle" x="911" y="-182.3" font-family="Times,serif" font-size="14.00" fill="#000000">add_dependency</text>
</g>
<!-- pyan__modvis__ImportVisitor&#45;&gt;pyan__modvis__ImportVisitor__add_dependency -->
<g id="edge14" class="edge">
<title>pyan__modvis__ImportVisitor&#45;&gt;pyan__modvis__ImportVisitor__add_dependency</title>
<path fill="none" stroke="#838b8b" stroke-dasharray="5,2" d="M867.12,-345.69C879.28,-341.91 890.91,-335.8 899,-326 924.79,-294.75 922,-244.99 916.97,-214.25"/>
<polygon fill="#838b8b" stroke="#838b8b" points="920.38,-213.45 915.14,-204.24 913.49,-214.7 920.38,-213.45"/>
</g>
<!-- pyan__modvis__ImportVisitor__analyze -->
<g id="node11" class="node">
<title>pyan__modvis__ImportVisitor__analyze</title>
<ellipse fill="#ff6565" fill-opacity="0.698039" stroke="black" cx="1039" cy="-114" rx="37.89" ry="18"/>
<text text-anchor="middle" x="1039" y="-110.3" font-family="Times,serif" font-size="14.00" fill="#000000">analyze</text>
</g>
<!-- pyan__modvis__ImportVisitor&#45;&gt;pyan__modvis__ImportVisitor__analyze -->
<g id="edge11" class="edge">
<title>pyan__modvis__ImportVisitor&#45;&gt;pyan__modvis__ImportVisitor__analyze</title>
<path fill="none" stroke="#838b8b" stroke-dasharray="5,2" d="M868.53,-346.98C936.4,-338.67 1045.41,-313.18 1088,-235 1103.95,-205.73 1101.41,-190.52 1088,-160 1083.82,-150.48 1076.52,-142.1 1068.82,-135.22"/>
<polygon fill="#838b8b" stroke="#838b8b" points="1071.02,-132.5 1061.07,-128.86 1066.58,-137.91 1071.02,-132.5"/>
</g>
<!-- pyan__modvis__ImportVisitor__detect_cycles -->
<g id="node12" class="node">
<title>pyan__modvis__ImportVisitor__detect_cycles</title>
<ellipse fill="#ff6565" fill-opacity="0.698039" stroke="black" cx="832" cy="-277" rx="57.69" ry="18"/>
<text text-anchor="middle" x="832" y="-273.3" font-family="Times,serif" font-size="14.00" fill="#000000">detect_cycles</text>
</g>
<!-- pyan__modvis__ImportVisitor&#45;&gt;pyan__modvis__ImportVisitor__detect_cycles -->
<g id="edge9" class="edge">
<title>pyan__modvis__ImportVisitor&#45;&gt;pyan__modvis__ImportVisitor__detect_cycles</title>
<path fill="none" stroke="#838b8b" stroke-dasharray="5,2" d="M815.98,-333.7C818.44,-325.15 821.46,-314.65 824.21,-305.07"/>
<polygon fill="#838b8b" stroke="#838b8b" points="827.66,-305.75 827.06,-295.18 820.93,-303.82 827.66,-305.75"/>
</g>
<!-- pyan__modvis__ImportVisitor__prepare_graphX -->
<g id="node13" class="node">
<title>pyan__modvis__ImportVisitor__prepare_graphX</title>
<ellipse fill="#ff6565" fill-opacity="0.698039" stroke="black" cx="568" cy="-277" rx="61.99" ry="18"/>
<text text-anchor="middle" x="568" y="-273.3" font-family="Times,serif" font-size="14.00" fill="#000000">prepare_graph</text>
</g>
<!-- pyan__modvis__ImportVisitor&#45;&gt;pyan__modvis__ImportVisitor__prepare_graphX -->
<g id="edge13" class="edge">
<title>pyan__modvis__ImportVisitor&#45;&gt;pyan__modvis__ImportVisitor__prepare_graphX</title>
<path fill="none" stroke="#838b8b" stroke-dasharray="5,2" d="M751.64,-349.1C717.43,-346.38 674.18,-340.13 638,-326 622.5,-319.95 607.05,-309.89 594.63,-300.55"/>
<polygon fill="#838b8b" stroke="#838b8b" points="596.58,-297.63 586.54,-294.25 592.28,-303.15 596.58,-297.63"/>
</g>
<!-- pyan__modvis__ImportVisitor__visit_Import -->
<g id="node14" class="node">
<title>pyan__modvis__ImportVisitor__visit_Import</title>
<ellipse fill="#ff6565" fill-opacity="0.698039" stroke="black" cx="702" cy="-277" rx="54.69" ry="18"/>
<text text-anchor="middle" x="702" y="-273.3" font-family="Times,serif" font-size="14.00" fill="#000000">visit_Import</text>
</g>
<!-- pyan__modvis__ImportVisitor&#45;&gt;pyan__modvis__ImportVisitor__visit_Import -->
<g id="edge8" class="edge">
<title>pyan__modvis__ImportVisitor&#45;&gt;pyan__modvis__ImportVisitor__visit_Import</title>
<path fill="none" stroke="#838b8b" stroke-dasharray="5,2" d="M781.9,-336.06C776.2,-332.89 770.34,-329.46 765,-326 752.86,-318.14 740.06,-308.64 729.19,-300.17"/>
<polygon fill="#838b8b" stroke="#838b8b" points="731.32,-297.38 721.3,-293.93 726.98,-302.88 731.32,-297.38"/>
</g>
<!-- pyan__modvis__ImportVisitor__visit_ImportFrom -->
<g id="node15" class="node">
<title>pyan__modvis__ImportVisitor__visit_ImportFrom</title>
<ellipse fill="#ff6565" fill-opacity="0.698039" stroke="black" cx="412" cy="-277" rx="74.19" ry="18"/>
<text text-anchor="middle" x="412" y="-273.3" font-family="Times,serif" font-size="14.00" fill="#000000">visit_ImportFrom</text>
</g>
<!-- pyan__modvis__ImportVisitor&#45;&gt;pyan__modvis__ImportVisitor__visit_ImportFrom -->
<g id="edge10" class="edge">
<title>pyan__modvis__ImportVisitor&#45;&gt;pyan__modvis__ImportVisitor__visit_ImportFrom</title>
<path fill="none" stroke="#838b8b" stroke-dasharray="5,2" d="M770.32,-338.71C762.64,-336.82 754.62,-335.12 747,-334 692.01,-325.92 550.53,-340.99 497,-326 477.63,-320.58 457.95,-309.86 442.41,-299.93"/>
<polygon fill="#838b8b" stroke="#838b8b" points="444.04,-296.81 433.77,-294.22 440.18,-302.65 444.04,-296.81"/>
</g>
<!-- pyan__modvis__create_modulegraphX&#45;&gt;pyan__modvis__ImportVisitor -->
<g id="edge37" class="edge">
<title>pyan__modvis__create_modulegraphX&#45;&gt;pyan__modvis__ImportVisitor</title>
<path fill="none" stroke="#000000" d="M791.92,-408.7C794.9,-400 798.58,-389.27 801.91,-379.55"/>
<polygon fill="#000000" stroke="#000000" points="805.28,-380.52 805.2,-369.92 798.65,-378.25 805.28,-380.52"/>
</g>
<!-- pyan__modvis__create_modulegraphX&#45;&gt;pyan__modvis__ImportVisitor____init__ -->
<g id="edge36" class="edge">
<title>pyan__modvis__create_modulegraphX&#45;&gt;pyan__modvis__ImportVisitor____init__</title>
<path fill="none" stroke="#000000" d="M848.29,-414.92C859.33,-411.46 870.36,-406.92 880,-401 954.96,-354.96 1006.25,-259.33 1027.71,-213.12"/>
<polygon fill="#000000" stroke="#000000" points="1031,-214.34 1031.94,-203.78 1024.62,-211.44 1031,-214.34"/>
</g>
<!-- pyan__modvis__create_modulegraphX&#45;&gt;pyan__modvis__ImportVisitor__prepare_graphX -->
<g id="edge38" class="edge">
<title>pyan__modvis__create_modulegraphX&#45;&gt;pyan__modvis__ImportVisitor__prepare_graphX</title>
<path fill="none" stroke="#000000" d="M727.1,-414.11C717.71,-412.33 708.1,-410.56 699,-409 675.09,-404.89 665.24,-414.38 645,-401 615.88,-381.74 622.55,-363.57 604,-334 597.76,-324.06 590.81,-313.19 584.69,-303.7"/>
<polygon fill="#000000" stroke="#000000" points="587.5,-301.59 579.13,-295.09 581.62,-305.39 587.5,-301.59"/>
</g>
<!-- pyan__modvis__main&#45;&gt;pyan__modvis__ImportVisitor -->
<g id="edge42" class="edge">
<title>pyan__modvis__main&#45;&gt;pyan__modvis__ImportVisitor</title>
<path fill="none" stroke="#000000" d="M897.23,-412.95C881.92,-402.31 859.97,-387.05 842.05,-374.59"/>
<polygon fill="#000000" stroke="#000000" points="843.84,-371.57 833.63,-368.73 839.84,-377.31 843.84,-371.57"/>
</g>
<!-- pyan__modvis__main&#45;&gt;pyan__modvis__ImportVisitor____init__ -->
<g id="edge41" class="edge">
<title>pyan__modvis__main&#45;&gt;pyan__modvis__ImportVisitor____init__</title>
<path fill="none" stroke="#000000" d="M936.63,-414.49C940.66,-412.49 944.9,-410.56 949,-409 962.3,-403.93 969.86,-410.98 980,-401 1031.27,-350.57 1039.14,-259.95 1039.65,-214.53"/>
<polygon fill="#000000" stroke="#000000" points="1043.15,-214.26 1039.64,-204.26 1036.15,-214.26 1043.15,-214.26"/>
</g>
<!-- pyan__modvis__main&#45;&gt;pyan__modvis__ImportVisitor__detect_cycles -->
<g id="edge39" class="edge">
<title>pyan__modvis__main&#45;&gt;pyan__modvis__ImportVisitor__detect_cycles</title>
<path fill="none" stroke="#000000" d="M911.22,-408.93C905.44,-389.85 894.66,-358.41 880,-334 873.2,-322.68 864.09,-311.39 855.63,-301.95"/>
<polygon fill="#000000" stroke="#000000" points="858.1,-299.46 848.75,-294.49 852.96,-304.21 858.1,-299.46"/>
</g>
<!-- pyan__modvis__main&#45;&gt;pyan__modvis__ImportVisitor__prepare_graphX -->
<g id="edge40" class="edge">
<title>pyan__modvis__main&#45;&gt;pyan__modvis__ImportVisitor__prepare_graphX</title>
<path fill="none" stroke="#000000" d="M894.78,-414.89C889.43,-412.55 883.62,-410.37 878,-409 819.18,-394.62 799.14,-421.02 742,-401 681.49,-379.8 623.16,-330.93 591.79,-301.57"/>
<polygon fill="#000000" stroke="#000000" points="594.07,-298.91 584.42,-294.56 589.25,-303.98 594.07,-298.91"/>
</g>
<!-- pyan__modvis__main__stats -->
<g id="node18" class="node">
<title>pyan__modvis__main__stats</title>
<ellipse fill="#ff6565" fill-opacity="0.698039" stroke="black" cx="1142" cy="-352" rx="27" ry="18"/>
<text text-anchor="middle" x="1142" y="-348.3" font-family="Times,serif" font-size="14.00" fill="#000000">stats</text>
</g>
<!-- pyan__modvis__main&#45;&gt;pyan__modvis__main__stats -->
<g id="edge17" class="edge">
<title>pyan__modvis__main&#45;&gt;pyan__modvis__main__stats</title>
<path fill="none" stroke="#838b8b" stroke-dasharray="5,2" d="M931.82,-411.85C934.49,-410.72 937.26,-409.74 940,-409 957.4,-404.32 1086.39,-410.01 1102,-401 1111.41,-395.57 1118.44,-386 1124.11,-376.83"/>
<polygon fill="#838b8b" stroke="#838b8b" points="1127.28,-378.35 1129.37,-367.96 1121.26,-374.78 1127.28,-378.35"/>
</g>
<!-- pyan__modvis__main&#45;&gt;pyan__modvis__main__stats -->
<g id="edge43" class="edge">
<title>pyan__modvis__main&#45;&gt;pyan__modvis__main__stats</title>
<path fill="none" stroke="#000000" d="M939.72,-416.44C945.64,-413.51 951.9,-410.64 958,-409 975.4,-404.32 1104.39,-410.01 1120,-401 1128.49,-396.1 1135.04,-387.83 1139.38,-379.53"/>
<polygon fill="#000000" stroke="#000000" points="1142.6,-380.88 1143.3,-370.31 1136.16,-378.13 1142.6,-380.88"/>
</g>
<!-- pyan__modvis__ImportVisitor____init__&#45;&gt;pyan__modvis___infer_root -->
<g id="edge21" class="edge">
<title>pyan__modvis__ImportVisitor____init__&#45;&gt;pyan__modvis___infer_root</title>
<path fill="none" stroke="#000000" d="M1016.39,-170.9C1008.35,-166.6 999.05,-162.38 990,-160 846.73,-122.36 469.91,-157.57 324,-132 320.76,-131.43 317.44,-130.72 314.12,-129.91"/>
<polygon fill="#000000" stroke="#000000" points="314.8,-126.47 304.23,-127.26 312.98,-133.23 314.8,-126.47"/>
</g>
<!-- pyan__modvis__ImportVisitor____init__&#45;&gt;pyan__modvis__ImportVisitor__analyze -->
<g id="edge22" class="edge">
<title>pyan__modvis__ImportVisitor____init__&#45;&gt;pyan__modvis__ImportVisitor__analyze</title>
<path fill="none" stroke="#000000" d="M1033.12,-168.05C1032.29,-160.23 1032.05,-150.75 1032.41,-141.98"/>
<polygon fill="#000000" stroke="#000000" points="1035.92,-142.01 1033.14,-131.79 1028.93,-141.51 1035.92,-142.01"/>
</g>
<!-- pyan__modvis__ImportVisitor__add_dependency&#45;&gt;pyan__modvis__filename_to_module_name -->
<g id="edge25" class="edge">
<title>pyan__modvis__ImportVisitor__add_dependency&#45;&gt;pyan__modvis__filename_to_module_name</title>
<path fill="none" stroke="#000000" d="M875.03,-170.59C863.12,-166.43 849.66,-162.37 837,-160 768.57,-147.18 261.86,-179.55 211,-132 194.63,-116.7 193.52,-90.42 195.68,-70.38"/>
<polygon fill="#000000" stroke="#000000" points="199.17,-70.66 197.09,-60.27 192.24,-69.69 199.17,-70.66"/>
</g>
<!-- pyan__modvis__ImportVisitor__analyze&#45;&gt;pyan__modvis__filename_to_module_name -->
<g id="edge23" class="edge">
<title>pyan__modvis__ImportVisitor__analyze&#45;&gt;pyan__modvis__filename_to_module_name</title>
<path fill="none" stroke="#000000" d="M1018.99,-98.44C1012.32,-94.32 1004.63,-90.33 997,-88 873.95,-50.38 509.78,-43.67 319.62,-42.81"/>
<polygon fill="#000000" stroke="#000000" points="319.6,-39.31 309.58,-42.77 319.57,-46.31 319.6,-39.31"/>
</g>
<!-- pyan__modvis__ImportVisitor__analyze&#45;&gt;pyan__modvis__ImportVisitor____init__ -->
<g id="edge24" class="edge">
<title>pyan__modvis__ImportVisitor__analyze&#45;&gt;pyan__modvis__ImportVisitor____init__</title>
<path fill="none" stroke="#000000" d="M1044.86,-131.79C1045.7,-139.59 1045.94,-149.07 1045.6,-157.85"/>
<polygon fill="#000000" stroke="#000000" points="1042.09,-157.83 1044.88,-168.05 1049.07,-158.33 1042.09,-157.83"/>
</g>
<!-- pyan__modvis__ImportVisitor__detect_cycles__walk -->
<g id="node16" class="node">
<title>pyan__modvis__ImportVisitor__detect_cycles__walk</title>
<ellipse fill="#ff3232" fill-opacity="0.698039" stroke="black" cx="778" cy="-186" rx="27.9" ry="18"/>
<text text-anchor="middle" x="778" y="-182.3" font-family="Times,serif" font-size="14.00" fill="#000000">walk</text>
</g>
<!-- pyan__modvis__ImportVisitor__detect_cycles&#45;&gt;pyan__modvis__ImportVisitor__detect_cycles__walk -->
<g id="edge15" class="edge">
<title>pyan__modvis__ImportVisitor__detect_cycles&#45;&gt;pyan__modvis__ImportVisitor__detect_cycles__walk</title>
<path fill="none" stroke="#838b8b" stroke-dasharray="5,2" d="M816.43,-259.26C807.11,-246.29 795.79,-228.08 787.68,-213.19"/>
<polygon fill="#838b8b" stroke="#838b8b" points="790.59,-211.21 782.86,-203.97 784.39,-214.45 790.59,-211.21"/>
</g>
<!-- pyan__modvis__ImportVisitor__detect_cycles&#45;&gt;pyan__modvis__ImportVisitor__detect_cycles__walk -->
<g id="edge32" class="edge">
<title>pyan__modvis__ImportVisitor__detect_cycles&#45;&gt;pyan__modvis__ImportVisitor__detect_cycles__walk</title>
<path fill="none" stroke="#000000" d="M827.05,-258.84C820.16,-244.99 808.44,-225.37 798.04,-210.13"/>
<polygon fill="#000000" stroke="#000000" points="800.75,-207.9 792.12,-201.75 795.03,-211.93 800.75,-207.9"/>
</g>
<!-- pyan__modvis__ImportVisitor__prepare_graphX&#45;&gt;pyan__modvis__split_module_name -->
<g id="edge35" class="edge">
<title>pyan__modvis__ImportVisitor__prepare_graphX&#45;&gt;pyan__modvis__split_module_name</title>
<path fill="none" stroke="#000000" d="M540.8,-260.73C527.43,-254.01 510.82,-246.8 495,-243 420.15,-225.05 396.44,-254.57 322,-235 300.54,-229.36 278.31,-218.45 260.76,-208.46"/>
<polygon fill="#000000" stroke="#000000" points="262.43,-205.38 252.03,-203.35 258.89,-211.42 262.43,-205.38"/>
</g>
<!-- pyan__modvis__ImportVisitor__prepare_graphX&#45;&gt;pyan__modvis__ImportVisitor____init__ -->
<g id="edge34" class="edge">
<title>pyan__modvis__ImportVisitor__prepare_graphX&#45;&gt;pyan__modvis__ImportVisitor____init__</title>
<path fill="none" stroke="#000000" d="M593.97,-260.57C606.76,-253.81 622.7,-246.61 638,-243 676.08,-234.02 953.95,-250.2 990,-235 1001.88,-229.99 1012.48,-220.63 1020.75,-211.5"/>
<polygon fill="#000000" stroke="#000000" points="1023.61,-213.54 1027.4,-203.65 1018.27,-209.02 1023.61,-213.54"/>
</g>
<!-- pyan__modvis__ImportVisitor__prepare_graphX__add_uses_edge -->
<g id="node17" class="node">
<title>pyan__modvis__ImportVisitor__prepare_graphX__add_uses_edge</title>
<ellipse fill="#ff3232" fill-opacity="0.698039" stroke="black" cx="511" cy="-186" rx="63.89" ry="18"/>
<text text-anchor="middle" x="511" y="-182.3" font-family="Times,serif" font-size="14.00" fill="#000000">add_uses_edge</text>
</g>
<!-- pyan__modvis__ImportVisitor__prepare_graphX&#45;&gt;pyan__modvis__ImportVisitor__prepare_graphX__add_uses_edge -->
<g id="edge16" class="edge">
<title>pyan__modvis__ImportVisitor__prepare_graphX&#45;&gt;pyan__modvis__ImportVisitor__prepare_graphX__add_uses_edge</title>
<path fill="none" stroke="#838b8b" stroke-dasharray="5,2" d="M551.87,-259.26C542.01,-246.17 529.95,-227.73 521.31,-212.76"/>
<polygon fill="#838b8b" stroke="#838b8b" points="524.34,-211.01 516.43,-203.97 518.22,-214.41 524.34,-211.01"/>
</g>
<!-- pyan__modvis__ImportVisitor__prepare_graphX&#45;&gt;pyan__modvis__ImportVisitor__prepare_graphX__add_uses_edge -->
<g id="edge33" class="edge">
<title>pyan__modvis__ImportVisitor__prepare_graphX&#45;&gt;pyan__modvis__ImportVisitor__prepare_graphX__add_uses_edge</title>
<path fill="none" stroke="#000000" d="M562.47,-258.84C555.38,-245.5 543.63,-226.8 533.02,-211.82"/>
<polygon fill="#000000" stroke="#000000" points="535.68,-209.52 526.96,-203.51 530.02,-213.65 535.68,-209.52"/>
</g>
<!-- pyan__modvis__ImportVisitor__visit_Import&#45;&gt;pyan__modvis__filename_to_module_name -->
<g id="edge26" class="edge">
<title>pyan__modvis__ImportVisitor__visit_Import&#45;&gt;pyan__modvis__filename_to_module_name</title>
<path fill="none" stroke="#000000" d="M678.82,-260.59C667.34,-253.84 652.98,-246.63 639,-243 622.49,-238.71 345.05,-245.99 332,-235 305.99,-213.11 340.8,-184.27 317,-160 276.53,-118.73 226.2,-177.06 190,-132 176.05,-114.64 181.13,-88.89 188.32,-69.54"/>
<polygon fill="#000000" stroke="#000000" points="191.64,-70.67 192.19,-60.09 185.16,-68.02 191.64,-70.67"/>
</g>
<!-- pyan__modvis__ImportVisitor__visit_Import&#45;&gt;pyan__modvis__ImportVisitor__add_dependency -->
<g id="edge27" class="edge">
<title>pyan__modvis__ImportVisitor__visit_Import&#45;&gt;pyan__modvis__ImportVisitor__add_dependency</title>
<path fill="none" stroke="#000000" d="M725.92,-260.77C737.33,-254.23 751.42,-247.15 765,-243 795.79,-233.59 806.68,-245.83 837,-235 853.44,-229.13 869.92,-218.96 883.14,-209.5"/>
<polygon fill="#000000" stroke="#000000" points="885.37,-212.2 891.32,-203.43 881.2,-206.57 885.37,-212.2"/>
</g>
<!-- pyan__modvis__ImportVisitor__visit_ImportFrom&#45;&gt;pyan__modvis__filename_to_module_name -->
<g id="edge29" class="edge">
<title>pyan__modvis__ImportVisitor__visit_ImportFrom&#45;&gt;pyan__modvis__filename_to_module_name</title>
<path fill="none" stroke="#000000" d="M382.1,-260.36C367.92,-253.73 350.5,-246.7 334,-243 323.31,-240.61 144.59,-242.9 137,-235 91.81,-187.93 145.86,-108.12 178.95,-67.83"/>
<polygon fill="#000000" stroke="#000000" points="181.7,-70 185.45,-60.09 176.34,-65.5 181.7,-70"/>
</g>
<!-- pyan__modvis__ImportVisitor__visit_ImportFrom&#45;&gt;pyan__modvis__resolve -->
<g id="edge28" class="edge">
<title>pyan__modvis__ImportVisitor__visit_ImportFrom&#45;&gt;pyan__modvis__resolve</title>
<path fill="none" stroke="#000000" d="M382.1,-260.34C367.92,-253.71 350.51,-246.67 334,-243 287.98,-232.76 165.4,-253.42 122,-235 109.71,-229.78 98.68,-220.08 90.13,-210.75"/>
<polygon fill="#000000" stroke="#000000" points="92.73,-208.4 83.56,-203.11 87.43,-212.97 92.73,-208.4"/>
</g>
<!-- pyan__modvis__ImportVisitor__visit_ImportFrom&#45;&gt;pyan__modvis__ImportVisitor__add_dependency -->
<g id="edge30" class="edge">
<title>pyan__modvis__ImportVisitor__visit_ImportFrom&#45;&gt;pyan__modvis__ImportVisitor__add_dependency</title>
<path fill="none" stroke="#000000" d="M443.9,-260.58C459.52,-253.83 478.84,-246.62 497,-243 534.06,-235.61 800.89,-246.15 837,-235 853.92,-229.77 870.66,-219.47 883.92,-209.75"/>
<polygon fill="#000000" stroke="#000000" points="886.28,-212.35 892.11,-203.5 882.04,-206.79 886.28,-212.35"/>
</g>
<!-- pyan__modvis__ImportVisitor__detect_cycles__walk&#45;&gt;pyan__modvis__ImportVisitor__detect_cycles__walk -->
<g id="edge31" class="edge">
<title>pyan__modvis__ImportVisitor__detect_cycles__walk&#45;&gt;pyan__modvis__ImportVisitor__detect_cycles__walk</title>
<path fill="none" stroke="#000000" d="M798.31,-198.43C811.38,-201.68 823.95,-197.53 823.95,-186 823.95,-177.53 817.17,-173.05 808.39,-172.55"/>
<polygon fill="#000000" stroke="#000000" points="807.91,-169.08 798.31,-173.57 808.62,-176.04 807.91,-169.08"/>
</g>
<!-- pyan__modvis__main__stats__mean -->
<g id="node19" class="node">
<title>pyan__modvis__main__stats__mean</title>
<ellipse fill="#ff3232" fill-opacity="0.698039" stroke="black" cx="1142" cy="-277" rx="30.59" ry="18"/>
<text text-anchor="middle" x="1142" y="-273.3" font-family="Times,serif" font-size="14.00" fill="#000000">mean</text>
</g>
<!-- pyan__modvis__main__stats&#45;&gt;pyan__modvis__main__stats__mean -->
<g id="edge18" class="edge">
<title>pyan__modvis__main__stats&#45;&gt;pyan__modvis__main__stats__mean</title>
<path fill="none" stroke="#838b8b" stroke-dasharray="5,2" d="M1136.2,-334.07C1135.27,-325.41 1135.02,-314.66 1135.46,-304.9"/>
<polygon fill="#838b8b" stroke="#838b8b" points="1138.96,-305.07 1136.21,-294.84 1131.98,-304.55 1138.96,-305.07"/>
</g>
<!-- pyan__modvis__main__stats&#45;&gt;pyan__modvis__main__stats__mean -->
<g id="edge45" class="edge">
<title>pyan__modvis__main__stats&#45;&gt;pyan__modvis__main__stats__mean</title>
<path fill="none" stroke="#000000" d="M1147.8,-334.07C1148.73,-325.41 1148.98,-314.66 1148.54,-304.9"/>
<polygon fill="#000000" stroke="#000000" points="1152.02,-304.55 1147.79,-294.84 1145.04,-305.07 1152.02,-304.55"/>
</g>
<!-- pyan__modvis__main__stats__median -->
<g id="node20" class="node">
<title>pyan__modvis__main__stats__median</title>
<ellipse fill="#ff3232" fill-opacity="0.698039" stroke="black" cx="1228" cy="-277" rx="37.09" ry="18"/>
<text text-anchor="middle" x="1228" y="-273.3" font-family="Times,serif" font-size="14.00" fill="#000000">median</text>
</g>
<!-- pyan__modvis__main__stats&#45;&gt;pyan__modvis__main__stats__median -->
<g id="edge19" class="edge">
<title>pyan__modvis__main__stats&#45;&gt;pyan__modvis__main__stats__median</title>
<path fill="none" stroke="#838b8b" stroke-dasharray="5,2" d="M1157.59,-337.13C1162.68,-333.72 1168.17,-329.93 1173,-326 1182.7,-318.12 1192.42,-308.31 1201.09,-299.63"/>
<polygon fill="#838b8b" stroke="#838b8b" points="1203.79,-301.88 1208.42,-292.36 1198.86,-296.92 1203.79,-301.88"/>
</g>
<!-- pyan__modvis__main__stats&#45;&gt;pyan__modvis__main__stats__median -->
<g id="edge44" class="edge">
<title>pyan__modvis__main__stats&#45;&gt;pyan__modvis__main__stats__median</title>
<path fill="none" stroke="#000000" d="M1165.49,-342.58C1174.11,-338.08 1183.38,-332.2 1191,-326 1199.42,-319.16 1207.86,-310.87 1214.72,-303.12"/>
<polygon fill="#000000" stroke="#000000" points="1217.76,-304.93 1221.47,-295.01 1212.38,-300.45 1217.76,-304.93"/>
</g>
</g>
</svg>
